<svg width="1389" height="250" viewBox="0 0 1389 250" fill="none" xmlns="http://www.w3.org/2000/svg">
<path d="M1302.62 85.2622C1313.81 85.2622 1324.19 86.6826 1333.47 89.5278L1333.91 89.6645L1333.91 89.6655C1343.32 92.6113 1351.7 96.7272 1358.8 101.935L1359.14 102.184C1366.51 107.652 1372.62 114.261 1377.28 121.839L1377.5 122.201L1377.5 122.207C1377.82 122.729 1378.13 123.262 1378.44 123.794C1381.54 129.18 1383.12 135.287 1383 141.46C1382.96 143.72 1382.69 145.967 1382.2 148.163C1386.64 154.148 1388.9 161.584 1388.46 169.083C1388.46 169.09 1388.46 169.097 1388.46 169.104L1388.45 169.281C1387.94 177.696 1386.09 190.48 1380.08 203.421C1376.67 210.784 1372.26 217.454 1366.97 223.241L1366.39 223.872C1360.33 230.351 1353.15 235.698 1345.04 239.776C1332.33 246.172 1317.34 249.442 1300.55 249.603H1300.28C1299.94 249.608 1299.59 249.611 1299.25 249.611H1251.5C1237.23 249.611 1224.54 247.592 1213.84 243.52V243.519C1207.68 241.173 1202.04 238.272 1196.97 234.84C1190.72 242.841 1180.97 248.003 1170.03 248.003H1151.25C1132.4 248.003 1117.06 232.67 1117.06 213.818V208.241L1078.98 177.415C1075.63 174.707 1071.72 172.795 1067.57 171.798V213.818C1067.57 232.467 1052.43 249.613 1033.38 249.613H964.994C946.141 249.613 930.808 234.28 930.808 215.427V209.77H882.794V215.427C882.793 234.28 867.46 249.613 848.608 249.613H829.798C810.946 249.612 795.614 234.279 795.614 215.427V167.122C795.614 166.755 795.615 166.388 795.62 166.023H779.627V215.816C779.627 234.668 764.294 250.001 745.442 250.001H726.632C707.78 250.001 692.447 234.668 692.447 215.816V166.023H671.089C671.42 166.905 671.722 167.796 671.995 168.699L671.996 168.702C673.585 173.979 674.515 179.164 674.743 184.128L674.765 184.614C674.767 184.661 674.768 184.71 674.768 184.757V188.596C674.768 188.635 674.768 188.674 674.766 188.712L674.752 189.114V189.115C674.548 194.501 673.687 200.036 672.204 205.567L671.977 206.38C669.569 214.761 664.932 222.287 658.268 228.76C651.82 235.022 643.287 239.885 633.025 243.304L632.121 243.599C622.721 246.592 611.489 248.006 597.935 248.006H499.895C488.476 248.006 478.356 242.38 472.148 233.77C466.519 237.759 460.166 241.072 453.165 243.673C442.473 247.644 429.929 249.616 415.926 249.616H367.057C352.83 249.616 340.184 247.641 329.529 243.656C322.234 240.928 315.663 237.432 309.902 233.208C303.733 242.136 293.421 248.008 281.755 248.008H262.949C248.857 248.008 236.741 239.447 231.512 227.256L228.435 232.116C222.134 242.063 211.331 248.008 199.556 248.008H178.042C166.446 248.008 155.733 242.202 149.401 232.489L145.306 226.209C140.334 238.954 127.93 248.008 113.442 248.008H94.6324C75.7801 248.008 60.4478 232.675 60.4478 213.823V193.741C60.4478 192.021 61.8414 190.627 63.5611 190.626C65.2809 190.626 66.6753 192.021 66.6753 193.741V213.823C66.6753 229.235 79.2199 241.78 94.6324 241.78H113.442C127.355 241.78 138.94 231.552 141.056 218.218C141.258 216.946 142.223 215.93 143.482 215.661C144.742 215.392 146.037 215.926 146.741 217.005L154.619 229.088C159.801 237.038 168.552 241.78 178.042 241.78H199.556C209.197 241.78 218.014 236.928 223.173 228.784L229.845 218.25L229.911 218.151C230.605 217.141 231.832 216.63 233.044 216.855C234.296 217.088 235.281 218.059 235.53 219.307C238.085 232.107 249.415 241.78 262.949 241.78H281.755C292.34 241.78 301.582 235.863 306.333 227.142C306.775 226.329 307.557 225.755 308.465 225.576C309.374 225.397 310.315 225.631 311.033 226.215C316.855 230.951 323.773 234.853 331.711 237.822L332.635 238.161C342.248 241.602 353.805 243.387 367.057 243.387H415.926C429.158 243.387 440.78 241.55 450.533 238.004L450.996 237.834C458.609 235.005 465.311 231.311 471.037 226.835C471.747 226.28 472.664 226.06 473.549 226.232C474.435 226.404 475.202 226.952 475.653 227.734C480.493 236.129 489.552 241.778 499.895 241.778H597.935C611.517 241.778 622.316 240.31 631.055 237.396H631.056C640.64 234.203 648.295 229.764 653.929 224.292C660.069 218.329 664.165 211.488 666.188 203.953C667.559 198.841 668.343 193.768 668.528 188.879L668.541 188.54V184.827L668.521 184.415V184.414C668.32 180.022 667.492 175.348 666.033 170.501C665.392 168.381 664.561 166.317 663.547 164.315C663.059 163.35 663.106 162.2 663.672 161.278C664.239 160.356 665.244 159.794 666.326 159.794H695.561C697.281 159.795 698.675 161.189 698.675 162.909V215.816C698.675 231.229 711.22 243.773 726.632 243.773H745.442C760.854 243.773 773.399 231.228 773.399 215.816V162.909C773.399 161.189 774.793 159.794 776.513 159.794H798.825C799.675 159.794 800.487 160.142 801.075 160.756C801.662 161.371 801.974 162.198 801.936 163.047C801.876 164.404 801.841 165.763 801.841 167.122V215.427C801.841 230.84 814.386 243.384 829.798 243.384H848.608C864.021 243.384 876.565 230.84 876.565 215.427V206.656C876.565 204.936 877.959 203.542 879.679 203.541H933.922C935.642 203.542 937.037 204.936 937.037 206.656V215.427C937.037 230.84 949.581 243.384 964.994 243.384H1033.38C1048.6 243.384 1061.34 229.439 1061.34 213.818V168.093C1061.34 167.206 1061.72 166.361 1062.38 165.77C1063.04 165.179 1063.92 164.898 1064.81 164.999C1071.3 165.738 1077.51 168.29 1082.65 172.377L1082.9 172.573V172.574L1122.14 204.334C1122.87 204.926 1123.29 205.816 1123.29 206.755V213.818C1123.29 229.23 1135.84 241.775 1151.25 241.775H1170.03C1179.92 241.775 1188.63 236.616 1193.61 228.826L1193.65 228.758C1194.12 228.067 1194.85 227.59 1195.67 227.439C1196.52 227.283 1197.4 227.487 1198.09 228.001C1203.32 231.878 1209.32 235.131 1216.06 237.699L1216.52 237.873C1226.25 241.499 1238 243.382 1251.5 243.382H1299.25C1299.58 243.382 1299.91 243.379 1300.24 243.374H1300.49C1316.51 243.221 1330.54 240.103 1342.24 234.212C1349.83 230.396 1356.51 225.389 1362.11 219.329L1362.37 219.04C1367.22 213.74 1371.28 207.609 1374.43 200.801L1374.94 199.675C1380.11 188.052 1381.77 176.597 1382.23 168.908L1382.23 168.893L1382.24 168.714C1382.62 162.26 1380.51 155.843 1376.41 150.866C1375.77 150.088 1375.55 149.049 1375.81 148.077C1376.4 145.879 1376.73 143.615 1376.77 141.343V141.341C1376.87 136.31 1375.58 131.316 1373.04 126.901C1372.76 126.412 1372.47 125.918 1372.17 125.423C1367.92 118.412 1362.29 112.276 1355.43 107.185C1348.88 102.327 1341.03 98.421 1332.05 95.6089C1323.36 92.89 1313.46 91.4907 1302.62 91.4907H1251.5C1237.6 91.4907 1225.53 93.6393 1215.56 97.7749C1209.21 100.412 1203.52 103.668 1198.53 107.488C1197.83 108.026 1196.93 108.241 1196.06 108.077C1195.19 107.913 1194.43 107.386 1193.97 106.628C1189.06 98.5173 1180.17 93.0983 1170.04 93.0981H1151.25C1139.72 93.0981 1129.79 100.117 1125.52 110.124C1125.15 110.98 1124.42 111.628 1123.53 111.89C1122.64 112.152 1121.68 112.002 1120.91 111.479C1104.23 100.162 1084.54 93.7243 1064.35 93.0561C1064.09 93.0474 1063.83 93.0061 1063.59 92.936H1014.59C1003.99 92.936 994.731 98.8688 989.988 107.612C989.557 108.406 988.802 108.974 987.919 109.168C987.037 109.363 986.113 109.164 985.388 108.624C980.027 104.625 973.822 101.28 966.825 98.6626C957.032 94.9997 945.158 93.0981 931.478 93.0981H882.609C869.165 93.0982 857.385 94.9928 847.541 98.6499C842.439 100.545 837.749 102.83 833.484 105.477C832.098 106.337 830.282 105.982 829.323 104.662C824.228 97.652 815.978 93.0981 806.692 93.0981H540.227C526.698 93.0981 515.949 94.5631 507.274 97.477L506.862 97.6167C501.955 99.3038 497.64 101.251 493.836 103.474C492.54 104.232 490.888 103.957 489.907 102.82C484.768 96.8645 477.182 93.1001 468.734 93.1001H449.925C434.513 93.1001 421.969 105.645 421.968 121.057V174.059C421.968 175.779 420.574 177.173 418.854 177.173H364.611C362.891 177.173 361.497 175.779 361.497 174.059V121.057C361.496 105.645 348.952 93.1001 333.54 93.1001H240.655C231.019 93.1001 222.203 97.9503 217.042 106.088L190.826 147.441C190.258 148.336 189.274 148.881 188.214 148.887C187.155 148.894 186.165 148.361 185.586 147.473L158.439 105.798C154.397 99.5949 148.19 95.3499 141.158 93.7788L140.823 93.7055L140.744 93.6889C139.106 93.3005 138.068 91.6737 138.417 90.0171C138.771 88.3342 140.423 87.2575 142.106 87.6118C150.885 89.4604 158.645 94.7061 163.658 102.4L188.16 140.013L211.782 102.752C218.085 92.8141 228.886 86.8716 240.655 86.8716H333.54C352.392 86.8716 367.725 102.205 367.725 121.057V170.946H415.74V121.057C415.74 102.205 431.073 86.8716 449.925 86.8716H468.734C478.154 86.8716 486.693 90.703 492.877 96.8755C496.51 94.9305 500.488 93.2222 504.836 91.727L505.29 91.5737C514.816 88.3734 526.291 86.8696 540.227 86.8696H806.692C817.038 86.8696 826.319 91.4927 832.586 98.7622C836.561 96.4865 840.828 94.4997 845.371 92.812L845.874 92.6274C856.453 88.7799 868.823 86.8696 882.609 86.8696H931.478C945.705 86.8696 958.351 88.8443 969.006 92.8296L969.708 93.0942C975.776 95.4196 981.335 98.2834 986.335 101.66C992.491 92.6457 1002.85 86.7075 1014.59 86.7075H1064.46C1064.8 86.7075 1065.13 86.7624 1065.43 86.8637C1085.3 87.6765 1104.68 93.7642 1121.42 104.37C1127.28 93.941 1138.45 86.8696 1151.25 86.8696H1170.04C1181.23 86.8697 1191.17 92.2764 1197.41 100.596C1202.18 97.2655 1207.44 94.4003 1213.17 92.0229H1213.17C1224.07 87.504 1236.98 85.2622 1251.5 85.2622H1302.62ZM806.69 111.182C812.148 111.182 816.575 115.607 816.575 121.068V131.837C816.575 137.298 812.151 141.725 806.69 141.725H755.33V215.816C755.33 221.277 750.902 225.704 745.441 225.704H726.632C721.174 225.704 716.747 221.277 716.747 215.816V141.725H665.224C659.766 141.725 655.339 137.298 655.339 131.837V121.068C655.339 115.61 659.763 111.182 665.224 111.182H806.69ZM931.478 111.179C942.945 111.179 952.617 112.657 960.495 115.602C968.372 118.547 974.777 122.538 979.705 127.578L979.71 127.582C984.64 132.617 988.205 138.539 990.4 145.345C992.597 152.149 993.696 159.411 993.696 167.126V215.432C993.696 220.893 989.271 225.321 983.81 225.321H965.002C959.541 225.321 955.113 220.893 955.113 215.432V185.475H858.499V215.432C858.499 220.893 854.072 225.321 848.611 225.321H829.801C824.343 225.321 819.917 220.893 819.917 215.432V167.126C819.917 159.516 821.067 152.308 823.372 145.504C825.676 138.696 829.349 132.749 834.383 127.66C839.423 122.568 845.905 118.549 853.835 115.602C861.767 112.655 871.356 111.179 882.609 111.179H931.478ZM1302.62 109.575C1311.62 109.575 1319.63 110.677 1326.65 112.872C1333.67 115.069 1339.67 118.015 1344.66 121.712C1349.64 125.409 1353.66 129.779 1356.72 134.814C1356.94 135.185 1357.16 135.559 1357.38 135.933C1361.17 142.512 1356.39 150.729 1348.79 150.729H1326.89C1324.17 150.729 1321.53 149.64 1319.69 147.629C1317.94 145.711 1315.44 144.092 1312.19 142.769C1307.31 140.786 1301.18 139.794 1293.78 139.794H1260.51C1253.86 139.794 1248.45 140.599 1244.27 142.206C1240.09 143.812 1236.77 145.958 1234.3 148.636C1231.84 151.314 1230.15 154.398 1229.24 157.878C1228.33 161.361 1227.87 164.924 1227.87 168.569C1227.87 172.214 1228.33 175.669 1229.24 178.938C1230.15 182.209 1231.84 185.046 1234.3 187.458C1236.77 189.869 1240.09 191.773 1244.27 193.166C1248.45 194.561 1253.86 195.255 1260.51 195.255H1295.39C1303.96 195.255 1310.63 194.291 1315.4 192.363C1320.17 190.432 1323.52 187.219 1325.45 182.717H1281.64C1276.18 182.717 1271.76 178.289 1271.76 172.829V169.454C1271.76 163.995 1276.18 159.568 1281.64 159.568H1356.53V159.571C1360.94 159.571 1364.46 163.28 1364.2 167.684C1364.2 167.734 1364.19 167.784 1364.19 167.833C1363.41 180.813 1358.59 205.766 1334.12 218.081C1325.51 222.413 1314.47 225.178 1300.32 225.313C1299.96 225.315 1299.61 225.321 1299.24 225.321H1251.5C1240.03 225.321 1230.36 223.818 1222.48 220.819C1214.61 217.819 1208.2 213.746 1203.27 208.601C1198.34 203.457 1194.78 197.458 1192.58 190.597C1190.39 183.739 1189.29 176.448 1189.29 168.733C1189.29 161.018 1190.39 153.596 1192.58 146.468C1194.78 139.343 1198.34 133.045 1203.27 127.58C1208.2 122.114 1214.61 117.749 1222.48 114.478C1230.36 111.21 1240.03 109.575 1251.5 109.575H1302.62ZM468.724 111.176C474.185 111.176 478.612 115.601 478.612 121.062V169.369C478.612 176.979 477.461 184.186 475.157 190.99C472.852 197.798 469.182 203.746 464.145 208.835C459.105 213.928 452.623 217.946 444.693 220.893C436.761 223.84 427.172 225.315 415.919 225.315H367.049C355.582 225.315 345.911 223.84 338.034 220.893C330.156 217.948 323.751 213.957 318.823 208.917C313.893 203.883 310.328 197.961 308.133 191.155C305.936 184.351 304.837 177.089 304.837 169.374V121.067C304.838 115.609 309.264 111.182 314.725 111.182H333.534C338.992 111.182 343.419 115.606 343.419 121.067V195.255H440.034V121.067C440.034 115.609 444.462 111.182 449.922 111.182H468.731L468.724 111.176ZM1043.27 111.084H1060.87C1081.12 111.085 1100.94 118.103 1116.68 130.843L1141.36 150.821V121.067C1141.36 115.609 1145.79 111.182 1151.25 111.182H1170.03L1170.04 111.184C1175.5 111.184 1179.92 115.609 1179.92 121.07V213.826C1179.92 219.286 1175.5 223.713 1170.04 223.713H1151.25C1145.79 223.713 1141.36 219.286 1141.36 213.826V196.656L1094.27 158.534C1084.85 150.91 1072.99 146.71 1060.87 146.71H1043.27V214.822C1043.27 220.283 1038.84 224.709 1033.38 224.709H1014.58C1009.12 224.709 1004.69 220.283 1004.69 214.822V120.908C1004.69 115.449 1009.12 111.022 1014.58 111.022H1043.27V111.084ZM632.857 111.182C638.318 111.182 642.745 115.607 642.745 121.068V131.516C642.745 136.977 638.318 141.404 632.857 141.404H558.868C555.178 141.404 551.87 141.421 548.94 141.454H526.128V153.098H604.105C612.65 153.442 619.73 154.525 625.342 156.354C632.253 158.606 637.585 161.419 641.336 164.794C645.086 168.17 647.55 171.815 648.731 175.726C649.755 179.122 650.333 182.296 650.467 185.246V188.2C650.333 191.775 649.752 195.465 648.731 199.279C647.55 203.676 645.086 207.694 641.336 211.336C637.585 214.981 632.256 217.954 625.342 220.258C618.429 222.563 609.291 223.713 597.934 223.713H499.894C494.433 223.713 490.006 219.286 490.006 213.826V203.377C490.006 197.919 494.433 193.492 499.894 193.492H579.287C585.694 193.492 590.993 193.467 595.188 193.415H612.022V181.77H533.427C525.077 181.401 518.175 180.328 512.732 178.541C505.873 176.289 500.566 173.477 496.817 170.101C493.065 166.725 490.602 163.083 489.423 159.169C488.243 155.258 487.655 151.64 487.655 148.317C487.655 144.244 488.243 140.011 489.423 135.617C490.602 131.225 493.065 127.233 496.817 123.641C500.566 120.051 505.871 117.078 512.732 114.719C519.588 112.363 528.751 111.182 540.22 111.182H632.857ZM135.006 111.182C138.35 111.182 141.466 112.871 143.29 115.671L188.432 184.969L232.301 115.776C234.115 112.916 237.266 111.182 240.652 111.182H281.755C287.216 111.182 291.644 115.607 291.644 121.068V213.823C291.644 219.284 287.216 223.711 281.755 223.711H262.947C257.486 223.711 253.058 219.284 253.058 213.823V147.833L207.904 219.115C206.093 221.977 202.941 223.711 199.553 223.711H178.039C174.696 223.711 171.582 222.022 169.755 219.222L123.328 147.994V213.823C123.328 219.284 118.9 223.711 113.439 223.711H94.6304C89.1695 223.711 84.7427 219.284 84.7427 213.823V121.068C84.7427 115.609 89.1695 111.182 94.6304 111.182H135.006ZM63.8326 0.000468224C65.549 0.0304631 66.8892 1.50332 66.8892 3.21727V65.4917C66.8892 71.7822 74.4954 74.9342 78.9449 70.4848L96.5757 52.854C97.8039 51.6233 99.8317 51.6628 101.02 52.896C102.208 54.1292 102.118 56.1173 100.905 57.3305L83.3462 74.8891C78.8972 79.3386 82.049 86.9438 88.3394 86.9438H123.584L123.591 86.9419C125.305 86.9421 126.775 88.2523 126.807 89.9985C126.84 91.7449 125.432 93.1704 123.693 93.1704H88.0777C76.3761 93.1704 66.8921 102.654 66.8921 114.356V176.254C66.8921 177.993 65.4368 179.399 63.7203 179.369C62.0038 179.339 60.6636 177.866 60.6636 176.152V114.625C60.6636 108.335 53.0574 105.183 48.608 109.632L30.9771 127.263C30.3692 127.871 29.5721 128.175 28.775 128.175C27.9778 128.175 27.1807 127.871 26.5728 127.263C25.3597 126.053 25.4268 124.005 26.6373 122.794L44.2037 105.228C48.6531 100.779 45.501 93.1723 39.2105 93.1723H3.1148C1.37599 93.1723 -0.0316658 91.7477 0.000541893 90.0014C0.0304373 88.285 1.50333 86.9438 3.21734 86.9438H39.2085C45.499 86.9438 48.6502 79.3386 44.2007 74.8891L26.5699 57.2583C25.3418 56.0276 25.3548 54.0272 26.6128 52.8139C27.846 51.6256 29.8342 51.7149 31.0474 52.9282L48.606 70.4868C53.0554 74.9359 60.6605 71.7849 60.6607 65.4946V3.11473C60.6609 1.37594 62.1162 -0.0294255 63.8326 0.000468224ZM870.995 141.245C864.091 141.245 858.494 146.84 858.494 153.746H955.106C955.106 146.842 949.51 141.245 942.604 141.245H870.995Z" fill="black"/>
</svg>
